<?xml version="1.0" standalone="no"?>
<!DOCTYPE svg PUBLIC "-//W3C//DTD SVG 20010904//EN"
 "http://www.w3.org/TR/2001/REC-SVG-20010904/DTD/svg10.dtd">
<svg version="1.0" xmlns="http://www.w3.org/2000/svg"
 width="700.000000pt" height="700.000000pt" viewBox="0 0 700.000000 700.000000"
 preserveAspectRatio="xMidYMid meet">
<metadata>
Created by potrace 1.11, written by Peter Selinger 2001-2013
</metadata>
<g transform="translate(0.000000,700.000000) scale(0.100000,-0.100000)"
fill="#000000" stroke="none">
<path d="M0 3500 l0 -3500 3500 0 3500 0 0 3500 0 3500 -3500 0 -3500 0 0
-3500z m2405 835 c299 -31 547 -77 790 -148 108 -31 114 -32 315 -32 203 0
206 0 320 34 158 46 241 65 415 95 559 96 1140 100 1730 11 167 -25 354 -62
373 -74 13 -8 35 -251 26 -286 -4 -16 -18 -28 -42 -36 -93 -30 -115 -69 -198
-341 -173 -572 -204 -649 -281 -718 -27 -24 -84 -60 -128 -81 -157 -76 -361
-103 -780 -104 -312 0 -370 6 -575 61 -172 46 -231 77 -304 156 -79 84 -100
127 -253 513 -128 321 -150 370 -185 402 -46 43 -128 56 -191 29 -65 -27 -88
-69 -216 -392 -167 -421 -196 -479 -279 -562 -58 -59 -78 -72 -152 -100 -95
-36 -198 -63 -328 -88 -118 -22 -460 -30 -664 -15 -356 26 -507 70 -636 186
-76 69 -105 141 -257 645 -43 140 -91 281 -108 313 -27 51 -37 61 -95 88 l-64
31 6 122 c10 171 11 174 54 186 138 37 487 90 752 115 198 18 739 13 955 -10z"/>
<path d="M1510 4206 c-166 -18 -264 -32 -385 -57 -93 -20 -125 -32 -114 -43 3
-3 106 -33 229 -67 124 -34 229 -66 235 -71 6 -6 5 -12 -3 -17 -8 -5 -12 -11
-10 -14 1 -4 -4 -15 -13 -26 -10 -10 -20 -28 -24 -40 -3 -12 -11 -21 -16 -21
-5 0 -9 -6 -9 -14 0 -8 -6 -21 -13 -28 -8 -7 -16 -18 -18 -25 -3 -7 -53 3
-154 33 -82 24 -156 44 -164 44 -27 0 2 -178 61 -375 62 -205 141 -422 174
-475 96 -157 339 -222 824 -222 216 1 356 19 510 68 119 37 171 66 220 121 56
64 88 130 208 434 74 186 102 267 102 299 0 132 -94 339 -173 381 -46 25 -299
74 -537 105 -172 21 -758 28 -930 10z"/>
<path d="M4790 4214 c-19 -2 -91 -9 -160 -15 -197 -17 -526 -77 -581 -105 -87
-44 -179 -240 -179 -381 0 -44 17 -97 101 -306 131 -329 150 -367 217 -438 52
-54 66 -63 154 -94 208 -74 428 -99 733 -84 341 17 510 63 613 166 42 42 56
68 100 180 96 247 172 516 187 665 l6 66 -148 -44 c-170 -50 -189 -52 -198
-23 -4 12 -13 29 -21 38 -8 9 -13 18 -12 21 1 3 -6 14 -15 25 -9 11 -16 22
-15 25 2 3 -7 16 -20 30 -16 18 -19 26 -10 31 7 4 115 35 241 69 125 35 226
68 224 73 -7 23 -254 67 -512 92 -134 13 -596 19 -705 9z"/>
</g>
</svg>
